<svg xmlns="http://www.w3.org/2000/svg" width="48" height="63" fill="none"><g fill="#000" stroke="#F5FAFF" stroke-width=".5"><path d="M22.547 6.664a5.5 5.5 0 0 0-3.291 1.394l-.195.175-.166-.202a5.551 5.551 0 0 0-6.656-1.49 5.55 5.55 0 0 0-3.06 6.095l.05.256-.258.04a5.5 5.5 0 0 0-3.163 1.664 5.503 5.503 0 0 0-1.52 3.959 5.498 5.498 0 0 0 1.725 3.872L22.547 6.664Zm0 0a5.502 5.502 0 0 1 4.026 1.33 5.498 5.498 0 0 1 1.905 3.787c.033.46-.077 1.384-1.365 4.65-.465 1.18-.96 2.349-1.331 3.207l-.111.256.266.083a9.8 9.8 0 0 1 5.995 5.179c1.293 2.729 3.528 9.812 4.87 16.48.747 3.718 1.123 6.801 1.12 9.167h.25-.25c0 1.599-.18 2.849-.528 3.777-.348.923-.858 1.515-1.522 1.83-.664.315-1.445.334-2.38.019-.94-.318-2.02-.971-3.258-1.982l-.158.193.158-.193c-1.832-1.497-3.98-3.74-6.385-6.674-4.311-5.26-8.378-11.475-9.671-14.204a9.8 9.8 0 0 1-.213-7.919l.105-.258-.268-.077c-.9-.256-2.118-.613-3.326-1M22.547 6.664 10.475 24.315m0 0c-3.342-1.07-4.127-1.571-4.462-1.888l4.463 1.888Zm-4.512-5.804a3.837 3.837 0 0 0 1.203 2.7l.005.006.006.005c.142.118.426.262.803.423.388.166.907.365 1.544.588 1.275.447 3.036.998 5.206 1.604l.17.048.102-.146c.341-.49.73-.952 1.16-1.377l.17-.167-.159-.178c-2.927-3.279-5.13-5.806-6.143-7.36l-.074-.114H9.82a3.84 3.84 0 0 0-2.797 1.206 3.841 3.841 0 0 0-1.06 2.762Zm0 0 .25-.007m-.25.007.25-.007m0 0a3.591 3.591 0 0 1 .991-2.583m-.991 2.583a3.587 3.587 0 0 0 1.125 2.526l-.134-5.109m0 0a3.59 3.59 0 0 1 2.616-1.128l-2.616 1.129Zm17.94 30.79c.15.183.297.36.443.535l.124.15.175-.084 3.58-1.697a.838.838 0 1 1 .717 1.514l-3.042 1.442-.301.143.22.249c2.34 2.636 4.125 4.207 5.426 5.078.65.435 1.187.7 1.62.834.423.131.784.147 1.049.021.297-.14.536-.488.712-.995.18-.52.314-1.256.362-2.254.096-1.999-.146-5.088-1.07-9.681-1.312-6.525-3.478-13.428-4.741-16.093-1.924-4.06-6.793-5.799-10.853-3.874-4.06 1.924-5.798 6.792-3.874 10.853 1.263 2.665 5.235 8.712 9.453 13.86Zm0 0 .194-.158m-.194.158.194-.158m0 0c.149.182.295.359.44.533l9.27 7.584c.817-.387 1.71-3.489-.134-12.655-1.31-6.515-3.471-13.396-4.722-16.035-1.865-3.936-6.584-5.62-10.52-3.755-3.935 1.865-5.62 6.584-3.755 10.52 1.25 2.639 5.208 8.668 9.42 13.808Zm-5.389-26.51.201-.068-.033-.209c-.276-1.74-.62-3.87-.972-5.729a51.84 51.84 0 0 0-.53-2.508c-.172-.708-.344-1.289-.51-1.64a3.869 3.869 0 0 0-5.148-1.834 3.869 3.869 0 0 0-1.84 5.146c.161.34.486.82.909 1.379.426.564.963 1.226 1.56 1.936 1.195 1.42 2.636 3.042 3.923 4.483l.14.157.18-.112a9.899 9.899 0 0 1 2.12-1.002Zm6.858-8.134v-.015a3.831 3.831 0 0 0-1.328-2.631 3.842 3.842 0 0 0-2.81-.929 3.84 3.84 0 0 0-2.704 1.402l-.086.105.041.129c.585 1.84 1.182 5.324 1.832 9.413l.037.235.236-.025a9.768 9.768 0 0 1 1.776-.024l.177.014.072-.162c.904-2.063 1.593-3.776 2.054-5.047.23-.635.406-1.163.523-1.57.114-.395.182-.708.18-.895Z"/><path d="M21.632 29.047a.838.838 0 1 1 .718 1.514l-3.478 1.648a.838.838 0 0 1-.717-1.514l3.477-1.648ZM24.674 36.395l5.564-2.637a.838.838 0 1 1 .718 1.513l-5.565 2.637a.838.838 0 1 1-.717-1.514Z"/></g></svg>