<svg aria-hidden="true" style="position: absolute; width: 0; height: 0; overflow: hidden;"
    version="1.1" xmlns="http://www.w3.org/2000/svg" xmlns:xlink="http://www.w3.org/1999/xlink">
    <defs>
        <symbol id="icon-arrow-right" viewBox="0 0 18 32">
            <path
                d="M17.414 17.414c0.362-0.362 0.586-0.862 0.586-1.414s-0.224-1.052-0.586-1.414l-12.728-12.728c-0.357-0.335-0.838-0.541-1.368-0.541-1.105 0-2 0.895-2 2 0 0.53 0.206 1.012 0.543 1.37l-0.001-0.001 11.312 11.314-11.314 11.314c-0.377 0.364-0.611 0.874-0.611 1.439 0 1.105 0.895 2 2 2 0.565 0 1.074-0.234 1.438-0.61l0.001-0.001 12.728-12.728zM14 18h2v-4h-2v4z"></path>
        </symbol>
        <symbol id="icon-arrow-left" viewBox="0 0 18 32">
            <path
                d="M0.586 14.586c-0.362 0.362-0.586 0.862-0.586 1.414s0.224 1.052 0.586 1.414l12.728 12.728c0.359 0.347 0.849 0.561 1.389 0.561 1.105 0 2-0.895 2-2 0-0.54-0.214-1.030-0.562-1.39l0.001 0.001-11.314-11.314 11.314-11.314c0.335-0.357 0.541-0.838 0.541-1.368 0-1.105-0.895-2-2-2-0.53 0-1.012 0.206-1.37 0.543l0.001-0.001-12.728 12.726zM4 14h-2v4h2v-4z"></path>
        </symbol>
        <symbol id="icon-ellipse" viewBox="0 0 37 32">
            <path fill="#64d370" style="fill: var(--color1, #64d370)"
                d="M37.333 13.333c-0.001 10.309-8.358 18.665-18.667 18.665s-18.667-8.357-18.667-18.667c0-5.154 2.089-9.821 5.467-13.199v0l13.2 13.2h18.667z"></path>
        </symbol>

        <symbol id="icon-fish" viewBox="0 0 32 32">
            <path
                d="M24.829 11.924c-0.526 0-0.922 0.419-0.922 0.922 0 0.509 0.413 0.922 0.922 0.922s0.922-0.413 0.922-0.922c0-0.509-0.413-0.922-0.922-0.922v0zM5.822 8.882c-0.479 0-0.838 0.384-0.838 0.826s0.36 0.826 0.838 0.826c0.454 0 0.826-0.371 0.826-0.826s-0.371-0.826-0.826-0.826z"></path>
            <path stroke-linejoin="miter" stroke-linecap="butt" stroke-miterlimit="4"
                stroke-width="0.4"
                d="M31.469 18.611v0.002c0.005 0.033 0.008 0.071 0.008 0.11 0 0.148-0.042 0.287-0.115 0.404l0.002-0.003c-0.126 0.206-0.284 0.27-0.61 0.402l-0.013 0.006-0.003 0.002c-3.796 1.626-8.616 1.266-12.702 0.454-3.806-0.766-6.756-1.894-7.161-2.048l-0.038-0.014c-1.165-0.448-2.291-0.583-3.364-0.397s-2.082 0.694-3.015 1.51c-1.030 0.894-1.701 1.946-2.028 2.503l-0.061 0.102 0.062 0.102c1.264 2.088 3.072 3.206 5.382 3.292h0.001c0.066 0.002 0.145 0.003 0.223 0.003 0.79 0 1.556-0.102 2.286-0.294l-0.062 0.014c0.314-0.080 0.571-0.162 0.75-0.225 0.134-0.047 0.23-0.085 0.324-0.125l-0.035 0.013 0.008-0.004c0.082-0.035 0.178-0.056 0.278-0.056 0.349 0 0.64 0.249 0.705 0.58l0.001 0.005c0.426 2.234 0.144 3.897-0.794 5.004-1.066 1.248-2.604 1.306-2.84 1.306-0.001 0-0.001 0-0.002 0-0.138 0-0.268-0.039-0.378-0.106l0.003 0.002c-0.122-0.072-1.632-0.994-3.286-2.602-1.662-1.615-3.452-3.909-4.14-6.718-0.8-3.269-0.214-6.979 2.289-10.355 0.132-0.176 0.34-0.288 0.575-0.288 0.2 0 0.381 0.082 0.511 0.214l0 0c0.13 0.129 0.21 0.308 0.21 0.505 0 0.163-0.055 0.313-0.147 0.433l0.001-0.002v0.002c-1.825 2.48-2.302 4.906-2.314 6.701l-0.004 0.56 0.358-0.431c1.294-1.559 2.769-2.518 4.306-2.932s3.151-0.288 4.73 0.344c0.066 0.027 3.108 1.217 7.003 1.986l0.373 0.074-0.151-0.35c-0.912-2.114-1.31-4.218-1.040-6.142 0.27-1.918 1.206-3.667 2.992-5.078l0.314-0.248-0.386-0.102c-1.702-0.45-3.532-0.558-5.31-0.425-1.486 0.109-3.218 0.422-4.618 0.97h-0.001c-0.591 0.234-1.154 0.541-1.819 0.976l-0.002 0.002c-0.024 0.016-0.046 0.030-0.072 0.045l-0.027 0.016c-0.043 0.026-0.080 0.051-0.115 0.079l0.003-0.002c-0.111 0.076-0.249 0.122-0.397 0.122-0.197 0-0.375-0.080-0.503-0.21l-0-0-0.002-0.002c-0.133-0.13-0.215-0.31-0.215-0.51 0-0.247 0.126-0.464 0.316-0.592l0.003-0.002 0.214-0.142c1.273-0.837 2.376-1.342 4.206-1.744l0.262-0.058-0.13-0.234c-0.55-0.988-1.504-2.106-3.734-2.612l-0.005-0.001c-0.702-0.14-0.796-1.132-0.081-1.387 3.004-1.040 6.042-1.064 8.568 0.74 1.424 1.016 2.292 2.362 2.763 3.28l0.044 0.088 0.096 0.018c6.823 1.32 10.49 6.545 11.547 13.469zM13.806 4.877l0.062 0.131 0.144-0.019c0.752-0.104 1.62-0.163 2.502-0.163 0.395 0 0.787 0.012 1.176 0.035l-0.053-0.003 0.424 0.026-0.25-0.343c-1.070-1.464-2.986-3.034-6.151-2.774l-0.56 0.046 0.463 0.318c1.262 0.869 1.866 1.957 2.243 2.746zM11.038 26.299l-0.018-0.242-0.234 0.064c-1.907 0.518-3.944 0.526-5.762-0.22l-0.229 0.314c1.574 1.877 3.362 3.146 3.994 3.558l0.064 0.042 0.075-0.011c0.343-0.050 1.011-0.218 1.5-0.799l0.002-0.002c0.502-0.608 0.693-1.544 0.608-2.704zM20.454 18.843l0.048 0.090 0.101 0.014c2.944 0.408 6.384 0.486 9.208-0.598l0.157-0.060-0.032-0.164c-0.868-4.608-3.024-8.63-7.294-10.618l-0.096-0.045-0.091 0.054c-1.722 1.026-2.838 2.356-3.298 3.984-0.802 2.822 0.504 5.866 1.296 7.342z"></path>
        </symbol>
        <symbol id="icon-carrot" viewBox="0 0 24 32">
            <path
                d="M11.452 3.385c-0.647 0.047-1.226 0.307-1.674 0.71l0.003-0.002-0.099 0.089-0.084-0.103c-0.521-0.629-1.302-1.027-2.176-1.027-0.438 0-0.852 0.1-1.221 0.278l0.017-0.007c-0.959 0.464-1.608 1.429-1.608 2.546 0 0.195 0.020 0.385 0.057 0.568l-0.003-0.018 0.025 0.13-0.131 0.020c-0.638 0.101-1.192 0.406-1.605 0.844l-0.001 0.001c-0.479 0.501-0.773 1.181-0.773 1.93 0 0.028 0 0.057 0.001 0.085l-0-0.004c0.019 0.776 0.351 1.471 0.875 1.965l0.001 0.001 8.398-8.007zM11.452 3.385c0.064-0.005 0.138-0.008 0.214-0.008 0.702 0 1.344 0.259 1.835 0.687l-0.003-0.003c0.55 0.473 0.912 1.151 0.967 1.914l0.001 0.009c0.017 0.234-0.039 0.703-0.693 2.362-0.236 0.599-0.488 1.193-0.676 1.629l-0.056 0.13 0.135 0.042c1.355 0.423 2.439 1.371 3.032 2.601l0.013 0.030c0.657 1.386 1.792 4.984 2.474 8.371 0.379 1.889 0.57 3.454 0.569 4.656v0c0 0.812-0.091 1.447-0.268 1.918-0.177 0.469-0.436 0.77-0.773 0.93s-0.734 0.17-1.209 0.010c-0.477-0.162-1.026-0.493-1.655-1.007v0c-0.931-0.76-2.022-1.9-3.243-3.39-2.19-2.672-4.255-5.829-4.912-7.215-0.303-0.624-0.48-1.358-0.48-2.134 0-0.681 0.137-1.33 0.384-1.922l-0.012 0.033 0.053-0.131-0.136-0.039c-0.457-0.13-1.076-0.311-1.689-0.508M11.452 3.385l-6.132 8.966M5.321 12.35c-1.698-0.543-2.096-0.798-2.266-0.959l2.267 0.959zM3.029 9.402c0.013 0.541 0.245 1.026 0.61 1.371l0.001 0.001 0.003 0.003 0.003 0.003c0.072 0.060 0.216 0.133 0.408 0.215 0.197 0.084 0.461 0.185 0.784 0.299 0.648 0.227 1.542 0.507 2.644 0.815l0.086 0.024 0.052-0.074c0.173-0.249 0.371-0.484 0.589-0.699l0.086-0.085-0.081-0.090c-1.487-1.666-2.606-2.949-3.12-3.738l-0.038-0.058h-0.069c-0 0-0.001 0-0.001 0-0.559 0-1.063 0.235-1.418 0.612l-0.001 0.001c-0.334 0.349-0.539 0.824-0.539 1.347 0 0.020 0 0.040 0.001 0.059l-0-0.003zM3.029 9.402l0.127-0.004M3.029 9.402l0.127-0.004M3.156 9.399c-0.001-0.016-0.001-0.034-0.001-0.053 0-0.489 0.192-0.932 0.505-1.26l-0.001 0.001M3.156 9.399c0.012 0.506 0.229 0.96 0.571 1.282l0.001 0.001-0.068-2.595M3.659 8.087c0.333-0.353 0.805-0.573 1.327-0.573 0.001 0 0.001 0 0.002 0h-0l-1.329 0.573zM12.772 23.726c0.076 0.093 0.151 0.183 0.225 0.272l0.063 0.076 0.089-0.043 1.818-0.862c0.056-0.029 0.123-0.047 0.194-0.047 0.235 0 0.426 0.191 0.426 0.426 0 0.174-0.104 0.323-0.253 0.389l-0.003 0.001-1.698 0.805 0.112 0.126c1.189 1.339 2.095 2.137 2.756 2.579 0.33 0.221 0.603 0.356 0.823 0.424 0.215 0.067 0.398 0.075 0.533 0.011 0.151-0.071 0.272-0.248 0.362-0.505 0.091-0.264 0.16-0.638 0.184-1.145 0.049-1.015-0.074-2.584-0.544-4.917-0.666-3.314-1.767-6.821-2.408-8.174-0.977-2.062-3.45-2.946-5.513-1.968s-2.945 3.45-1.968 5.513c0.642 1.354 2.659 4.425 4.802 7.040zM12.772 23.726l0.099-0.080M12.772 23.726l0.099-0.080M12.87 23.646c0.076 0.092 0.15 0.182 0.223 0.271l4.709 3.852c0.415-0.197 0.869-1.772-0.068-6.428-0.665-3.309-1.763-6.804-2.398-8.145-0.947-1.999-3.344-2.855-5.343-1.907s-2.855 3.344-1.907 5.344c0.635 1.34 2.645 4.403 4.785 7.014zM10.133 10.181l0.102-0.035-0.017-0.106c-0.14-0.884-0.315-1.966-0.494-2.91-0.109-0.598-0.203-1.028-0.306-1.454l0.037 0.18c-0.087-0.36-0.175-0.655-0.259-0.833-0.323-0.668-0.996-1.12-1.774-1.12-0.305 0-0.594 0.070-0.852 0.194l0.012-0.005c-0.669 0.323-1.122 0.996-1.122 1.775 0 0.305 0.069 0.593 0.193 0.85l-0.005-0.012c0.082 0.173 0.247 0.417 0.462 0.7 0.216 0.286 0.489 0.623 0.792 0.983 0.607 0.721 1.339 1.545 1.993 2.277l0.071 0.080 0.091-0.057c0.309-0.197 0.665-0.37 1.041-0.498l0.035-0.011zM13.616 6.049v-0.008c-0.040-0.537-0.292-1.007-0.672-1.334l-0.003-0.002c-0.34-0.297-0.789-0.478-1.279-0.478-0.052 0-0.104 0.002-0.155 0.006l0.007-0c-0.555 0.040-1.042 0.308-1.371 0.709l-0.003 0.003-0.044 0.053 0.021 0.066c0.297 0.935 0.6 2.704 0.931 4.781l0.019 0.119 0.12-0.013c0.155-0.017 0.335-0.027 0.518-0.027 0.135 0 0.269 0.005 0.402 0.016l-0.017-0.001 0.090 0.007 0.037-0.082c0.459-1.048 0.809-1.918 1.043-2.564 0.117-0.323 0.206-0.591 0.266-0.797 0.058-0.201 0.092-0.36 0.091-0.455z"></path>
            <path
                d="M10.988 14.754c0.056-0.028 0.121-0.045 0.19-0.045 0.235 0 0.426 0.191 0.426 0.426 0 0.172-0.102 0.32-0.249 0.387l-0.003 0.001-1.767 0.837c-0.050 0.022-0.109 0.035-0.17 0.035-0.235 0-0.426-0.191-0.426-0.426 0-0.164 0.093-0.307 0.229-0.378l1.768-0.838zM12.533 18.486l2.826-1.339c0.057-0.031 0.125-0.049 0.197-0.049 0.235 0 0.426 0.191 0.426 0.426 0 0.175-0.105 0.325-0.256 0.39l-0.003 0.001-2.827 1.339c-0.056 0.029-0.123 0.047-0.194 0.047-0.235 0-0.426-0.191-0.426-0.426 0-0.174 0.104-0.323 0.253-0.389l0.003-0.001z"></path>
        </symbol>
        <symbol id="icon-bottle" viewBox="0 0 22 32">
            <path
                d="M5.523 11.594c0.135-0.052 0.23-0.181 0.23-0.332 0-0.045-0.008-0.088-0.024-0.128l0.001 0.002-0.042-0.111c-0.052-0.135-0.181-0.229-0.332-0.229-0.196 0-0.355 0.159-0.355 0.355 0 0.045 0.008 0.088 0.024 0.128l-0.001-0.002 0.042 0.111c0.052 0.135 0.181 0.229 0.332 0.229 0.045 0 0.088-0.008 0.128-0.024l-0.002 0.001zM7.994 18.123c0.135-0.052 0.23-0.181 0.23-0.332 0-0.045-0.008-0.088-0.024-0.128l0.001 0.002-1.927-5.090c-0.055-0.128-0.181-0.217-0.327-0.217-0.196 0-0.355 0.159-0.355 0.355 0 0.040 0.007 0.079 0.019 0.115l-0.001-0.002 1.926 5.090c0.052 0.135 0.181 0.23 0.332 0.23 0.045 0 0.088-0.008 0.128-0.024l-0.002 0.001z"></path>
            <path
                d="M12.382 31.389l7.746-2.932c0.585-0.227 0.993-0.786 0.993-1.439 0-0.195-0.036-0.382-0.103-0.554l0.004 0.011-7.371-19.474c-0.367-0.946-1.269-1.604-2.326-1.604-0.274 0-0.537 0.044-0.783 0.126l0.018-0.005-0.378-0.998 0.221-0.084c0.135-0.052 0.229-0.181 0.229-0.332 0-0.045-0.008-0.088-0.024-0.128l0.001 0.002-0.67-1.77c-0.227-0.585-0.786-0.993-1.44-0.993-0.195 0-0.382 0.036-0.554 0.103l0.011-0.004-4.426 1.675c-0.585 0.227-0.993 0.786-0.993 1.439 0 0.195 0.036 0.382 0.103 0.554l-0.004-0.011 0.67 1.77c0.052 0.135 0.181 0.229 0.332 0.229 0.045 0 0.089-0.008 0.128-0.024l-0.002 0.001 0.221-0.084 0.378 0.999c-0.887 0.393-1.495 1.266-1.495 2.281 0 0.315 0.059 0.617 0.166 0.895l-0.006-0.017 7.372 19.475c0.227 0.585 0.786 0.992 1.439 0.992 0.195 0 0.382-0.036 0.553-0.102l-0.011 0.004zM3.3 4.719c-0.034-0.087-0.053-0.187-0.053-0.293 0-0.352 0.219-0.653 0.529-0.773l0.006-0.002 4.426-1.676c0.087-0.034 0.187-0.053 0.292-0.053 0.352 0 0.653 0.22 0.773 0.529l0.002 0.006 0.545 1.438-5.975 2.262-0.544-1.438zM9.517 4.769l0.377 0.996-4.869 1.843-0.377-0.996 4.869-1.843zM3.692 10.769c-0.072-0.186-0.114-0.402-0.114-0.627 0-0.755 0.47-1.399 1.134-1.657l0.012-0.004 5.975-2.262c0.186-0.072 0.402-0.114 0.627-0.114 0.755 0 1.399 0.47 1.657 1.134l0.004 0.012 1.873 4.95-4.89 1.851c-0.135 0.052-0.23 0.181-0.23 0.332 0 0.045 0.008 0.088 0.024 0.128l-0.001-0.002 0.572 1.512c0.055 0.128 0.181 0.217 0.327 0.217 0.196 0 0.355-0.159 0.355-0.355 0-0.040-0.007-0.079-0.019-0.115l0.001 0.002-0.446-1.18 4.559-1.726 3.104 8.201-4.559 1.726-1.61-4.255c-0.055-0.128-0.181-0.217-0.327-0.217-0.196 0-0.355 0.159-0.355 0.355 0 0.040 0.007 0.079 0.019 0.115l-0.001-0.003 1.736 4.587c0.052 0.135 0.181 0.23 0.332 0.23 0.045 0 0.088-0.008 0.128-0.024l-0.002 0.001 4.89-1.851 1.891 4.995c0.034 0.087 0.053 0.187 0.053 0.292 0 0.352-0.22 0.653-0.529 0.773l-0.006 0.002-7.746 2.933c-0.087 0.034-0.188 0.053-0.293 0.053-0.352 0-0.653-0.22-0.773-0.53l-0.002-0.006-7.37-19.475z"></path>
        </symbol>
        <symbol id="icon-meat" viewBox="0 0 38 32">
            <path
                d="M34.556 14.561l-0.042-0.233-0.093 0.218c-0.233 0.542-0.528 1.060-0.883 1.54-0.106 0.142-0.274 0.234-0.464 0.234-0.129 0-0.248-0.042-0.344-0.114l0.002 0.001c-0.143-0.106-0.234-0.274-0.234-0.464 0-0.129 0.042-0.248 0.114-0.344l-0.001 0.002c0.803-1.076 1.285-2.432 1.285-3.901 0-0.406-0.037-0.803-0.107-1.188l0.006 0.040c-0.293-1.617-1.238-2.898-2.816-3.836-1.575-0.937-3.781-1.531-6.601-1.782-5.212-0.464-10.867 0.407-13.055 0.804-5.136 0.93-8.557 5.864-7.628 10.999s5.864 8.557 10.999 7.627c2.432-0.44 4.193-1.579 6.044-2.778l0.005-0.003c2.139-1.384 4.341-2.809 7.78-3.431 0.201-0.036 0.4-0.082 0.596-0.137v0c0.046-0.013 0.098-0.021 0.152-0.021 0.319 0 0.577 0.258 0.577 0.577 0 0.262-0.175 0.483-0.414 0.554l-0.004 0.001c-0.23 0.064-0.466 0.118-0.701 0.161-3.212 0.582-5.324 1.948-7.356 3.263l-0.002 0.001c-1.966 1.272-3.812 2.465-6.471 2.947-3.943 0.714-7.781-0.86-10.145-3.772l-0.124 0.062c1.19 4.801 5.937 7.925 10.871 7.031 2.433-0.441 4.194-1.58 6.045-2.778l0.005-0.003c2.139-1.385 4.341-2.809 7.78-3.431 3.548-0.642 5.912-4.052 5.269-7.6l-0.045-0.247zM24.481 3.585c2.78 0.248 5.047 0.837 6.739 1.748 2.091 1.125 3.335 2.745 3.711 4.814l0.806 4.456c0.756 4.174-2.025 8.185-6.199 8.94-3.211 0.582-5.323 1.948-7.356 3.263l-0.002 0.001c-1.966 1.272-3.812 2.465-6.471 2.947-5.761 1.043-11.296-2.795-12.339-8.556l-0.807-4.457c-1.042-5.76 2.795-11.295 8.556-12.339 2.237-0.405 8.014-1.294 13.363-0.818z"></path>
            <path
                d="M31.376 16.673c0.094-0.068 0.211-0.11 0.338-0.11 0.319 0 0.577 0.258 0.577 0.577 0 0.191-0.093 0.361-0.237 0.466l-0.002 0.001c-0.094 0.071-0.214 0.113-0.343 0.113-0.188 0-0.355-0.090-0.46-0.23l-0.001-0.001c-0.072-0.095-0.115-0.215-0.115-0.346 0-0.188 0.090-0.355 0.229-0.46l0.001-0.001 0.012-0.009zM10.005 12.811c-0.284-1.571 0.895-3.116 2.645-3.433s3.395 0.718 3.679 2.289-0.894 3.116-2.644 3.433c-1.749 0.317-3.395-0.717-3.679-2.288zM11.141 12.606c0.174 0.962 1.233 1.559 2.34 1.358s1.888-1.131 1.714-2.093-1.233-1.559-2.34-1.358c-1.106 0.2-1.888 1.131-1.714 2.093z"></path>
        </symbol>
        <symbol id="icon-table" viewBox="0 0 71 32">
            <path
                d="M69.236 0h-54.258c-0.574 0-1.042 0.576-1.042 1.287s0.468 1.287 1.042 1.287h54.050v4.948h-66.944v-4.948h8.729c0.574 0 1.042-0.576 1.042-1.287s-0.468-1.287-1.042-1.287h-8.937c-1.035 0-1.876 1.040-1.876 2.316v5.463c0 1.276 0.841 2.316 1.876 2.316h1.468v19.33c0 1.278 0.841 2.316 1.876 2.316h3.575c1.035 0 1.876-1.038 1.876-2.316v-19.33h49.324v19.588c0 1.276 0.841 2.316 1.874 2.316h3.577c1.033 0 1.876-1.040 1.876-2.316v-19.588h1.915c1.035 0 1.876-1.040 1.876-2.316v-5.463c0-1.276-0.841-2.316-1.876-2.316zM8.587 29.168h-3.159v-19.070h3.159v19.072zM65.237 29.426h-3.159v-19.33h3.159v19.33z"></path>
        </symbol>
        <symbol id="icon-chat" viewBox="0 0 32 32">
            <path stroke-linejoin="miter" stroke-linecap="butt" stroke-miterlimit="4"
                stroke-width="0.4211"
                d="M27.166 18.798c-0.37 0.153-0.625 0.511-0.625 0.928 0 0.135 0.027 0.264 0.075 0.381l-0.002-0.007 1.621 4.010-4.712-2.077c-0.119-0.054-0.258-0.085-0.404-0.085-0.142 0-0.277 0.029-0.399 0.083l0.006-0.003c-1.373 0.599-2.973 0.948-4.654 0.948-0.014 0-0.029-0-0.043-0h0.002c-6.599 0-11.054-5.169-11.054-10.033 0-5.551 4.979-10.033 11.054-10.033s11.054 4.482 11.054 10.033c0 0.434-0.040 0.951-0.109 1.419v0c-0.010 0.053-0.016 0.115-0.016 0.177 0 0.553 0.448 1.001 1.001 1.001 0.512 0 0.934-0.384 0.994-0.879l0-0.005c0.086-0.57 0.132-1.18 0.132-1.714 0-3.229-1.367-6.262-3.857-8.541-2.459-2.252-5.726-3.495-9.2-3.495s-6.739 1.243-9.2 3.495c-2.225 2.036-3.552 4.675-3.809 7.517l-0.009 0.101-0.084 0.056c-2.79 1.846-4.437 4.801-4.437 7.977 0 1.986 0.625 3.869 1.817 5.492l0.069 0.095-0.044 0.109-1.769 4.377c-0.046 0.111-0.073 0.24-0.073 0.376 0 0.553 0.448 1 1 1 0 0 0.001 0 0.001 0h-0l25.673-12.707zM27.166 18.798c0.111-0.046 0.24-0.073 0.375-0.073 0.418 0 0.775 0.256 0.926 0.619l0.002 0.007 2.545 6.296c0.153 0.377 0.061 0.81-0.231 1.094v0c-0.18 0.174-0.426 0.282-0.697 0.282-0.146 0-0.285-0.031-0.41-0.087l0.006 0.003-6.579-2.9-0.082 0.031c-0.803 0.307-1.631 0.536-2.478 0.689l-0.093 0.017-0.050 0.081c-0.862 1.418-2.093 2.621-3.592 3.497-1.673 0.978-3.606 1.501-5.596 1.516h-0.007l-0.007 0.001h-0.004c-0.030 0.003-0.051 0.004-0.071 0.004-1.376 0-2.707-0.237-3.967-0.707l-0.080-0.029-0.078 0.034-5.103 2.25M27.166 18.798l-25.27 12.623M1.896 31.421c-0.118 0.053-0.256 0.084-0.402 0.084-0.001 0-0.001 0-0.002 0h0l0.404-0.084zM11.075 27.871h0.009l0.034-0.003h0.007c2.44 0 4.749-0.953 6.366-2.544l0.343-0.338-0.481-0.023c-3.308-0.156-6.367-1.447-8.679-3.672-1.859-1.788-3.088-4.062-3.523-6.436l-0.072-0.388-0.282 0.275c-1.464 1.428-2.303 3.316-2.303 5.313 0 1.744 0.622 3.394 1.794 4.769v0c0.243 0.284 0.307 0.679 0.167 1.025l-0.915 2.264-0.194 0.481 3.312-1.46c0.253-0.111 0.541-0.113 0.796-0.004 1.139 0.486 2.358 0.734 3.621 0.741z"></path>
            <path
                d="M17.971 14.209c0.009 0 0.021 0 0.032 0 0.669 0 1.212-0.543 1.212-1.212s-0.543-1.212-1.212-1.212c-0.011 0-0.022 0-0.034 0l0.002-0c-0.655 0.018-1.18 0.553-1.18 1.211s0.524 1.194 1.178 1.211l0.002 0zM22.819 14.209c0.669 0 1.212-0.543 1.212-1.212s-0.543-1.212-1.212-1.212v0c-0.669 0-1.212 0.543-1.212 1.212s0.543 1.212 1.212 1.212v0zM13.125 14.209c0.669 0 1.212-0.543 1.212-1.212s-0.543-1.212-1.212-1.212v0c-0.669 0-1.212 0.543-1.212 1.212s0.543 1.212 1.212 1.212v0z"></path>
        </symbol>

        <symbol id="icon-eco" viewBox="0 0 25 32">
            <path fill="#64d370" style="fill: var(--color1, #64d370)"
                d="M4.096 26.274l0.384 0.069c0.094 0.017 1.044 0.181 2.352 0.181 1.957 0 4.714-0.367 6.599-2.145 3.144-2.967 2.51-8.585 2.481-8.823l-0.046-0.387-0.384-0.069c-0.236-0.042-5.808-1.001-8.952 1.965s-2.51 8.585-2.481 8.823l0.046 0.387zM12.707 23.612c-2 1.887-5.307 1.932-6.989 1.811l4.721-4.455 3.51 0.911c-0.31 0.639-0.715 1.236-1.243 1.733zM14.348 20.893l-3.002-0.779 3.576-3.374c0.013 1.019-0.067 2.625-0.574 4.153zM14.154 16.014l-5.904 5.571-0.783-3.944c1.979-1.669 5.040-1.735 6.687-1.627zM6.583 18.6l0.762 3.839-2.305 2.176c-0.011-1.494 0.187-4.134 1.544-6.015z"></path>
            <path fill="#64d370" style="fill: var(--color1, #64d370)"
                d="M21.189 5.529c0-1.361-0.53-2.64-1.492-3.603-0.917-0.922-2.186-1.493-3.588-1.493-0.005 0-0.011 0-0.016 0h0.001c-0.424 0-0.846 0.053-1.253 0.156l0.26 1.022c0.297-0.079 0.639-0.124 0.99-0.124 0.001 0 0.002 0 0.003 0h-0c0.004 0 0.008-0 0.012-0 1.112 0 2.119 0.452 2.845 1.183l0 0c0.731 0.727 1.184 1.734 1.184 2.847 0 0.004 0 0.007 0 0.011v-0.001 4.018h-5.060v-4.018c0-2.81-2.286-5.095-5.095-5.095s-5.095 2.286-5.095 5.095v4.017h-4.884v19.574c0.002 1.455 1.181 2.633 2.635 2.635h19.609c1.455-0.002 2.633-1.181 2.635-2.635v-19.573h-3.69v-4.019zM5.939 5.529c0-2.228 1.813-4.041 4.041-4.041s4.041 1.813 4.041 4.041v4.017h-1.968v-4.017c0-0.497 0.089-0.98 0.264-1.438l-0.985-0.377c-0.211 0.536-0.334 1.157-0.334 1.806 0 0.003 0 0.005 0 0.008v-0 4.018h-5.060v-4.018zM18.906 29.12c-0.001 0.873-0.708 1.58-1.581 1.581h-14.689c-0.873-0.001-1.58-0.708-1.581-1.581v-18.519h17.851v18.519zM22.243 30.702h-1.901l1.55-2.701 1.347 2.347c-0.269 0.22-0.616 0.354-0.994 0.354-0 0-0.001 0-0.001 0h0zM21.365 10.601v2.987h1.054v-2.987h1.406v18.519c0 0.041-0.002 0.081-0.005 0.121l-1.401-2.44v-11.807h-1.053v11.807l-1.409 2.456c0.002-0.046 0.003-0.091 0.003-0.137v-18.519h1.406z"></path>
        </symbol>
        <symbol id="icon-dish" viewBox="0 0 32 32">
            <path fill="#64d370" style="fill: var(--color1, #64d370)"
                d="M28.663 21.695l-7.169 4.247-2.731-1.726h3.434c0.013 0 0.028 0 0.044 0 1.095 0 1.982-0.887 1.982-1.982s-0.887-1.982-1.982-1.982c-0.015 0-0.031 0-0.046 0.001l0.002-0h-5.898c-0.009-0-0.020-0-0.031-0-0.703 0-1.374 0.132-1.991 0.373l0.037-0.013-4.586 2.082v-0.461c0-0.298-0.242-0.54-0.54-0.54-0 0-0 0-0.001 0h-3.963c-0.298 0-0.54 0.242-0.54 0.54v0 9.007c0 0.298 0.242 0.54 0.54 0.541h3.963c0 0 0 0 0 0 0.298 0 0.54-0.242 0.54-0.54 0-0 0-0 0-0v0-0.54h11.201c0.002 0 0.004 0 0.005 0 0.74 0 1.423-0.239 1.978-0.644l-0.010 0.007 7.66-5.487c0.371-0.321 0.605-0.792 0.605-1.319 0-0.961-0.779-1.74-1.74-1.74-0.278 0-0.541 0.065-0.774 0.181l0.010-0.005zM8.647 30.701h-2.882v-7.925h2.882v7.925zM29.935 23.715l-7.663 5.473c-0.371 0.27-0.836 0.432-1.338 0.432-0.002 0-0.004 0-0.006 0h-11.201v-5.74l5.001-2.259c0.463-0.182 0.999-0.288 1.56-0.288 0.004 0 0.007 0 0.011 0h5.897c0.497 0 0.901 0.403 0.901 0.901s-0.403 0.901-0.901 0.901h-5.3c-0 0-0 0-0 0-0.299 0-0.541 0.242-0.541 0.541 0 0.192 0.1 0.36 0.25 0.456l0.002 0.001 4.587 2.882c0.080 0.050 0.178 0.080 0.283 0.080s0.202-0.030 0.285-0.081l-0.002 0.001 7.458-4.427c0.096-0.058 0.213-0.093 0.337-0.093 0.364 0 0.659 0.295 0.659 0.659 0 0.22-0.108 0.415-0.273 0.535l-0.002 0.001-0.004 0.025zM31.164 17.371h-1.261c-0.195-6.888-5.378-12.509-12.054-13.388l-0.070-0.008c0.37-0.412 0.597-0.961 0.597-1.562 0-1.294-1.049-2.342-2.342-2.342s-2.342 1.049-2.342 2.342c0 0.601 0.226 1.149 0.598 1.564l-0.002-0.002c-6.748 0.884-11.932 6.506-12.125 13.376l-0 0.019h-1.622c-0.292 0.009-0.525 0.247-0.525 0.54s0.233 0.531 0.524 0.54l0.001 0h30.624c0.298 0 0.54-0.242 0.54-0.54s-0.242-0.54-0.54-0.54v0zM16.032 1.158c0.696 0 1.261 0.565 1.261 1.261s-0.565 1.261-1.261 1.261v0c-0.696 0-1.261-0.565-1.261-1.261s0.565-1.261 1.261-1.261v0zM16.032 4.941c6.937 0.003 12.583 5.523 12.79 12.41l0 0.019h-25.579c0.207-6.906 5.853-12.427 12.79-12.429h0z"></path>
            <path fill="#64d370" style="fill: var(--color1, #64d370)"
                d="M13.128 7.503c-3.039 0.88-5.469 2.999-6.746 5.76l-0.027 0.066c-0.042 0.075-0.067 0.165-0.067 0.261 0 0.299 0.242 0.541 0.541 0.541 0.235 0 0.434-0.149 0.509-0.358l0.001-0.004c1.174-2.535 3.356-4.436 6.017-5.207l0.067-0.017c0.231-0.065 0.398-0.274 0.398-0.522 0-0.299-0.242-0.541-0.541-0.541-0.054 0-0.107 0.008-0.156 0.023l0.004-0.001z"></path>
        </symbol>
        <symbol id="icon-time" viewBox="0 0 32 32">
            <path fill="#64d370" style="fill: var(--color1, #64d370)"
                d="M29.793 7.004h-0.043l0.024 0.037c1.632 2.468 2.604 5.498 2.604 8.754 0 4.422-1.792 8.426-4.69 11.324l0-0c-2.896 2.901-6.899 4.696-11.322 4.696-2.157 0-4.214-0.427-6.091-1.201l0.106 0.039c-0.223-0.092-0.378-0.307-0.378-0.559 0-0.081 0.016-0.159 0.045-0.229l-0.001 0.004c0.092-0.223 0.307-0.378 0.559-0.378 0.081 0 0.159 0.016 0.229 0.045l-0.004-0.001c1.638 0.68 3.54 1.074 5.534 1.074 4.090 0 7.792-1.66 10.469-4.342l0-0c4.768-4.768 5.651-12.206 2.329-17.919l-0.044-0.075v0.864c0 0.333-0.27 0.603-0.603 0.603s-0.603-0.27-0.603-0.603v0-2.736c0-0.333 0.27-0.602 0.603-0.602h2.735c0.005-0 0.011-0 0.017-0 0.333 0 0.603 0.27 0.603 0.603s-0.27 0.603-0.603 0.603c-0.006 0-0.012-0-0.018-0l0.001 0h-1.459zM3.32 23.7l0.044 0.073v-0.976c0-0.333 0.27-0.603 0.603-0.603s0.603 0.27 0.603 0.603v2.792c0 0.333-0.27 0.603-0.603 0.603h-2.793c-0.333 0-0.603-0.27-0.603-0.603s0.27-0.603 0.603-0.603h1.533l-0.024-0.037c-1.666-2.487-2.659-5.546-2.659-8.838 0-4.422 1.792-8.426 4.69-11.324l-0 0c2.192-2.2 5.023-3.762 8.191-4.386l0.101-0.017c0.912-0.185 1.961-0.29 3.035-0.29 2.19 0 4.277 0.44 6.179 1.236l-0.106-0.039c0.231 0.088 0.392 0.308 0.392 0.565 0 0.333-0.27 0.603-0.603 0.603-0.089 0-0.173-0.019-0.249-0.054l0.004 0.002c-1.662-0.703-3.596-1.112-5.624-1.112-4.089 0-7.79 1.661-10.466 4.345l-0 0c-4.808 4.808-5.664 12.329-2.246 18.060z"></path>
            <path fill="#64d370" style="fill: var(--color1, #64d370)"
                d="M14.691 13.534c-0.138 0.069-0.232 0.21-0.232 0.373 0 0.067 0.016 0.131 0.044 0.187l-0.001-0.002 2.070 4.185c0.069 0.138 0.21 0.231 0.372 0.231 0.23 0 0.416-0.186 0.416-0.416 0-0.067-0.016-0.131-0.044-0.187l0.001 0.002-2.070-4.185c-0.070-0.138-0.21-0.231-0.373-0.231-0.067 0-0.13 0.016-0.186 0.044l0.002-0.001zM19.080 17.037l-2.070-4.185c-0.072-0.129-0.208-0.214-0.364-0.214-0.23 0-0.416 0.186-0.416 0.416 0 0.060 0.013 0.118 0.036 0.169l-0.001-0.003 2.070 4.185c0.069 0.138 0.21 0.231 0.372 0.231 0.23 0 0.416-0.186 0.416-0.416 0-0.067-0.016-0.131-0.044-0.187l0.001 0.002z"></path>
            <path fill="#64d370" style="fill: var(--color1, #64d370)"
                d="M24.648 8.343v0.001c0.003 0.019 0.005 0.040 0.005 0.062 0 0.010-0 0.021-0.001 0.031l0-0.001c0 0.004 0 0.008 0 0.013 0 0.022-0.002 0.044-0.005 0.066l0-0.002c0 0.019-0.001 0.038-0.004 0.057l-0.001 0.006-0.002 0.005-0.011 0.027c-0.063 0.158-1.564 3.848-4.346 6.427l0.957 1.936c0.272 0.515 0.432 1.126 0.432 1.775 0 0.208-0.016 0.412-0.048 0.611l0.003-0.022v0.001l-0.142 0.792v0c-0.020 0.131-0.031 0.283-0.031 0.437 0 0.51 0.124 0.991 0.344 1.414l-0.008-0.017 1.542 3.118c0.023 0.050 0.037 0.109 0.037 0.171 0 0.23-0.186 0.416-0.416 0.416-0.158 0-0.295-0.088-0.365-0.217l-0.001-0.002-1.542-3.117c-0.269-0.513-0.427-1.121-0.427-1.766 0-0.208 0.016-0.413 0.048-0.612l-0.003 0.022v-0.001l0.142-0.792v-0.001c0.020-0.131 0.031-0.283 0.031-0.437 0-0.513-0.126-0.997-0.349-1.422l0.008 0.017v-0l-2.468-4.99c-0.027-0.054-0.043-0.117-0.043-0.184 0-0.229 0.186-0.416 0.416-0.416 0.162 0 0.303 0.093 0.371 0.229l0.001 0.002 1.126 2.275c1.996-1.933 3.297-4.497 3.775-5.519-1.275-0.287-4.919-0.951-8.033-0.062 0.228 0.964 0.38 1.945 0.456 2.933 0 0.007 0.001 0.016 0.001 0.024 0 0.23-0.186 0.416-0.416 0.416-0.217 0-0.395-0.166-0.414-0.377l-0-0.002c-0.154-1.74-0.504-3.345-1.031-4.867l0.043 0.142-4.222 12.474c0.926-0.139 2.693-0.591 3.88-2.041l-1.194-2.414c-0.023-0.050-0.036-0.108-0.036-0.169 0-0.23 0.186-0.416 0.416-0.416 0.157 0 0.293 0.087 0.364 0.215l0.001 0.002 2.467 4.99c0.28 0.581 0.719 1.048 1.261 1.355l0.015 0.008 0.001 0 0.715 0.368h0.001c0.717 0.396 1.282 0.991 1.63 1.711l0.010 0.023 1.542 3.117c0.027 0.054 0.043 0.117 0.043 0.184 0 0.23-0.186 0.416-0.416 0.416-0.163 0-0.303-0.093-0.372-0.229l-0.001-0.002-1.542-3.117c-0.28-0.578-0.718-1.042-1.257-1.347l-0.015-0.008-0.001-0-0.721-0.377c-0.717-0.396-1.282-0.991-1.63-1.711l-0.010-0.023-0.874-1.767c-0.513 0.547-1.119 1-1.794 1.334l-0.036 0.016M24.648 8.342l-12.165 11.151M24.648 8.342c-0.010-0.056-0.035-0.105-0.071-0.145l0 0c-0.015-0.022-0.032-0.041-0.050-0.058l-0.003-0.003c-0.019-0.016-0.041-0.031-0.064-0.043l-0.002-0.001c-0.014-0.011-0.029-0.021-0.045-0.030l-0.002-0.001-0.004-0.002-0.005-0.001-0.029-0.009v-0l-0.004-0.001c-0.042-0.009-0.056-0.013-0.070-0.016l0.028 0.006c-0.521-0.132-5.009-1.268-8.903-0.168-0.251-0.935-0.518-1.712-0.831-2.465l0.048 0.13-0.001-0.003v-0h-0v-0.001h-0v-0.001h-0v-0.001h-0v-0.001h-0v-0.001h-0v-0.001h-0v-0.001h-0v-0.002h-0v-0.001h-0v-0.001h-0v-0.001h-0v-0.001h-0v-0.001l-0-0v-0h-0v-0.001l-0-0v-0l-0-0v-0l-0-0v-0l-0-0v-0l-0-0v-0l-0-0v-0l-0-0v-0.001h-0v-0.001h-0v-0h-0v-0.001h-0v-0.001h-0v-0.001h-0v-0.001h-0v-0.001h-0v-0.001h-0v-0.001h-0v-0.001h-0v-0.001h-0v-0.001h-0v-0.001h-0v-0.001l10.026 2.848zM12.504 19.536l-0.020-0.042M12.504 19.536l-0.020-0.042M12.504 19.536c-0.887 0.444-1.926 0.726-3.025 0.78l-0.018 0.001M12.484 19.493c-0.885 0.443-1.921 0.724-3.017 0.777l-0.018 0.001M9.461 20.317l0.009-0.004-0.021-0.042M9.461 20.317l-0.009 0.004-0.012 0.006-0.013-0.001-0.038-0.004h-0.003l-0.003-0.001-0.059-0.015-0.006-0.001v-0l-0.036-0.014c-0.026-0.012-0.049-0.026-0.070-0.041l0.001 0.001-0.009-0.007-0.006-0.011-0.003-0.006M9.461 20.317l-0.010 0.001-0.002-0.047M9.449 20.271l-0.255-0.044M9.194 20.227c-0.136-0.11-1.023-0.866-1.722-2.090-0.715-1.254-1.235-3.001-0.543-5.047 0.802-2.378 2.708-4.358 4.16-5.597 0.879-0.76 1.852-1.467 2.883-2.087l0.095-0.053 0.003-0.002 0.090-0.045 0.007-0.003c0.027-0.009 0.058-0.016 0.090-0.019l0.002-0 0.005-0.002 0.009-0.005h0.011c0.034-0.001 0.068 0.003 0.101 0.011h0.002c0.039 0.011 0.073 0.027 0.105 0.047l-0.002-0.001 0.011 0.007 0.007 0.014c0.028 0.019 0.053 0.042 0.075 0.067l0.003 0.003 0.002 0.003-5.395 14.798zM14.312 18.14l0.034-0.037 0.023 0.045-0.056-0.008zM8.952 10.973c1.396-1.975 3.363-3.491 4.532-4.291l-2.702 7.991-1.83-3.699zM9.267 19.159c-0.853-0.863-2.517-3.004-1.564-5.824 0.187-0.542 0.428-1.064 0.72-1.558l1.984 4.011-1.139 3.37z"></path>
        </symbol>
        <symbol id="icon-night" viewBox="0 0 32 32">
            <path fill="#64d370" style="fill: var(--color1, #64d370)"
                d="M27.14 26.502c0 2.938-2.42 5.328-5.394 5.328h-16.305c-2.732 0-4.954-2.195-4.954-4.893M27.14 26.502l-2.411-22.053M27.14 26.502c-0.003-1.683-0.79-3.181-2.016-4.149l-0.011-0.009M27.14 26.502l-2.054-4.147 0.028-0.010M0.487 26.936v0zM0.487 26.936c0-0.002 0-0.004 0-0.006 0-1.329 0.537-2.533 1.406-3.407l-0 0c0.71-0.72 1.638-1.223 2.677-1.402l0.029-0.004c-0.093-0.38-0.146-0.817-0.146-1.267v-0c0-3.178 2.618-5.763 5.835-5.763 0.668 0 1.331 0.115 1.961 0.339-0.182-0.719-0.286-1.543-0.286-2.393 0-0.003 0-0.005 0-0.008v0M11.962 13.027h0.025M11.962 13.027h0.025M11.962 13.027c0-5.478 4.365-9.936 9.731-9.936 0.951 0 2.057 0.041 3.018 0.349 0.222 0.073 0.38 0.278 0.38 0.521 0 0.233-0.145 0.431-0.35 0.51l-0.004 0.001M11.987 13.027c-0.001 0.813 0.097 1.622 0.29 2.411l12.427-11.974c-0.957-0.307-2.059-0.348-3.010-0.348-5.352 0-9.706 4.445-9.706 9.91zM24.738 4.473l-0.009-0.024M24.738 4.473l-0.009-0.024M24.738 4.473c-2.403 0.912-4.081 3.365-4.081 5.964 0 3.448 2.738 6.252 6.103 6.252 1.26 0 2.27-0.28 3.183-0.881 0.085-0.056 0.189-0.090 0.3-0.090 0.302 0 0.547 0.245 0.547 0.547 0 0.064-0.011 0.125-0.031 0.182l0.001-0.004c-0.955 2.769-3.023 4.905-5.647 5.902M24.728 4.449c-2.413 0.916-4.097 3.378-4.097 5.988 0 3.461 2.749 6.278 6.129 6.278 1.264 0 2.28-0.281 3.197-0.885 0.081-0.054 0.18-0.086 0.287-0.086 0.288 0 0.521 0.233 0.521 0.521 0 0.061-0.011 0.12-0.030 0.174l0.001-0.004c-0.955 2.767-3.023 4.901-5.647 5.892l0.023 0.018M12.256 15.457c-0.586-0.217-1.262-0.343-1.968-0.343h-0c-3.204 0-5.81 2.574-5.81 5.738 0 0.425 0.049 0.848 0.146 1.263l7.632-6.657zM2.672 24.293c0.679-0.688 1.614-1.122 2.649-1.15l0.005-0c0.295-0.009 0.531-0.25 0.531-0.546 0-0.067-0.012-0.13-0.034-0.189l0.001 0.004c-0.174-0.464-0.276-1-0.277-1.559v-0.001c0-2.574 2.126-4.669 4.741-4.669 1.971 0 3.755 1.226 4.442 3.049 0.080 0.209 0.279 0.354 0.512 0.354 0.082 0 0.16-0.018 0.23-0.050l-0.003 0.001c0.42-0.197 0.911-0.312 1.43-0.312 0 0 0.001 0 0.001 0h-0c1.623 0 3.032 1.136 3.351 2.7 0.053 0.252 0.273 0.438 0.536 0.438 0.038 0 0.075-0.004 0.11-0.011l-0.004 0.001v0c0.256-0.053 0.551-0.084 0.853-0.085h0c2.372 0 4.3 1.9 4.3 4.235s-1.929 4.235-4.3 4.235h-16.305c-2.129 0-3.86-1.705-3.86-3.8 0-0.001 0-0.002 0-0.003 0-1.031 0.417-1.964 1.091-2.64l-0 0zM22.877 4.221c-2.008 1.37-3.314 3.736-3.314 6.216 0 4.050 3.228 7.346 7.197 7.346 0.881 0 1.663-0.119 2.384-0.368-1.122 2.081-3.019 3.597-5.291 4.183-0.622-0.269-1.347-0.425-2.108-0.425-0.196 0-0.39 0.010-0.581 0.031l0.024-0.002c-0.599-1.807-2.326-3.071-4.289-3.071-0.463-0-0.923 0.071-1.364 0.21-0.456-0.911-1.114-1.661-1.917-2.214l-0.020-0.013c-0.343-0.914-0.541-1.97-0.541-3.072 0-0.006 0-0.011 0-0.017v0.001c0-4.876 3.876-8.842 8.637-8.842 0.379 0 0.782 0.007 1.183 0.036z"></path>
            <path fill="#64d370" style="fill: var(--color1, #64d370)"
                d="M27.048 11.765l0.588-0.882 0.588 0.882c0.1 0.145 0.265 0.239 0.452 0.239 0.302 0 0.547-0.245 0.547-0.547 0-0.111-0.033-0.215-0.090-0.301l0.001 0.002-0.646-0.969 0.885-0.296c0.219-0.075 0.374-0.279 0.374-0.519 0-0.302-0.245-0.547-0.547-0.547-0.062 0-0.121 0.010-0.177 0.029l0.004-0.001-0.845 0.282v-0.806c0-0.302-0.245-0.547-0.547-0.547s-0.547 0.245-0.547 0.547v0.806l-0.845-0.282c-0.053-0.019-0.114-0.029-0.177-0.029-0.24 0-0.445 0.155-0.519 0.37l-0.001 0.004c-0.018 0.052-0.028 0.111-0.028 0.173 0 0.242 0.157 0.447 0.375 0.52l0.004 0.001h0l0.885 0.295-0.646 0.969c-0.066 0.089-0.106 0.202-0.106 0.324 0 0.302 0.245 0.548 0.548 0.548 0.198 0 0.371-0.105 0.467-0.262l0.001-0.002zM4.098 15.853l-0.646-0.969 0.885-0.296c0.212-0.079 0.36-0.279 0.36-0.514 0-0.302-0.245-0.547-0.547-0.547-0.057 0-0.111 0.009-0.162 0.024l0.004-0.001-0.845 0.282v-0.806c0-0.302-0.245-0.547-0.547-0.547s-0.547 0.245-0.547 0.547v0 0.806l-0.845-0.282c-0.055-0.020-0.118-0.032-0.184-0.032-0.302 0-0.547 0.245-0.547 0.547 0 0.244 0.16 0.451 0.381 0.521l0.004 0.001 0.885 0.295-0.646 0.969c-0.058 0.085-0.092 0.19-0.092 0.303 0 0.302 0.245 0.547 0.547 0.547 0.189 0 0.356-0.096 0.454-0.242l0.001-0.002 0.588-0.882 0.588 0.882c0.099 0.15 0.267 0.248 0.458 0.248 0.302 0 0.547-0.245 0.547-0.547 0-0.115-0.035-0.222-0.096-0.31l0.001 0.002zM5.141 5.506l0.588-0.882 0.588 0.882c0.1 0.145 0.265 0.239 0.452 0.239 0.302 0 0.547-0.245 0.547-0.547 0-0.111-0.033-0.215-0.090-0.301l0.001 0.002-0.646-0.969 0.886-0.295c0.213-0.078 0.363-0.279 0.363-0.515 0-0.302-0.245-0.547-0.547-0.547-0.058 0-0.113 0.009-0.166 0.026l0.004-0.001-0.845 0.281v-0.806c0-0.302-0.245-0.547-0.547-0.547s-0.547 0.245-0.547 0.547v0 0.806l-0.844-0.281c-0.050-0.017-0.107-0.026-0.167-0.026-0.302 0-0.547 0.245-0.547 0.547 0 0.238 0.152 0.44 0.363 0.515l0.004 0.001 0.886 0.295-0.646 0.969c-0.057 0.085-0.092 0.19-0.092 0.303 0 0.189 0.096 0.356 0.242 0.454l0.002 0.001c0.085 0.058 0.19 0.092 0.303 0.092 0.189 0 0.355-0.096 0.454-0.241l0.001-0.002zM30.245 3.663c0.302 0 0.547-0.245 0.547-0.547s-0.245-0.547-0.547-0.547v0c-0.302 0-0.547 0.245-0.547 0.547s0.245 0.547 0.547 0.547v0zM8.858 11.488c0.302 0 0.547-0.245 0.547-0.547s-0.245-0.547-0.547-0.547v0c-0.302 0-0.547 0.245-0.547 0.547s0.245 0.547 0.547 0.547v0zM16.683 1.577c0.302 0 0.547-0.245 0.547-0.547s-0.245-0.547-0.547-0.547v0c-0.302 0-0.547 0.245-0.547 0.547s0.245 0.547 0.547 0.547v0zM31.288 21.919c0.302 0 0.547-0.245 0.547-0.547s-0.245-0.547-0.547-0.547v0c-0.302 0-0.547 0.245-0.547 0.547s0.245 0.547 0.547 0.547v0z"></path>
        </symbol>
        <symbol id="icon-car" viewBox="0 0 46 32">
            <path fill="#64d370" style="fill: var(--color1, #64d370)"
                d="M33.044 13.338v0.046h6.111c1.897 0 3.642 0.939 4.668 2.511v0l2.345 3.588c0.073 0.111 0.112 0.243 0.112 0.377v8.185c0 0.38-0.308 0.689-0.689 0.689h-2.515l-0.008 0.036c-0.414 1.779-2.009 3.11-3.911 3.11s-3.497-1.331-3.911-3.11l-0.008-0.036h-14.221l-0.008 0.036c-0.413 1.779-2.008 3.11-3.911 3.11s-3.498-1.331-3.911-3.11l-0.008-0.036h-6.559c-0.38 0-0.689-0.308-0.689-0.689v-0.726c0-1.486 0.898-2.764 2.179-3.328l0.028-0.012v-3.334h-7.4c-0.381 0-0.689-0.309-0.689-0.689s0.309-0.689 0.689-0.689v0h7.399v-1.563h-2.987c-0.381 0-0.689-0.309-0.689-0.689s0.309-0.689 0.689-0.689v0h2.987v-1.563h-7.399c-0.381 0-0.689-0.309-0.689-0.689s0.309-0.689 0.689-0.689h6.225l-0.128-0.085c-1.925-1.285-3.196-3.475-3.196-5.958 0-3.949 3.212-7.162 7.161-7.162 3.488 0 6.397 2.508 7.030 5.814l0.007 0.037h11.392c2.105 0 3.817 1.712 3.817 3.817v3.49zM9.559 20.646h-0.046v3.035h0.046l0.011-0.001h22.096v-13.831c0-1.345-1.095-2.439-2.439-2.439h-11.272l-0.001 0.046c-0.038 2.435-1.295 4.579-3.191 5.844l-0.127 0.085h4.482c0.381 0 0.689 0.309 0.689 0.689s-0.309 0.689-0.689 0.689v0h-9.606v1.563h5.194c0.38 0 0.689 0.308 0.689 0.689s-0.308 0.689-0.689 0.689h-5.194v1.563h1.517c0.381 0 0.689 0.309 0.689 0.689s-0.309 0.689-0.689 0.689v0h-1.47zM31.62 27.356h0.046v-2.299h-11.698l0.072 0.078c0.542 0.582 0.913 1.33 1.030 2.159l0.002 0.021 0.006 0.040h10.541zM14.152 25.135l0.072-0.077h-4.656c-1.245 0.002-2.254 1.008-2.262 2.251v0.047h5.807l0.006-0.040c0.119-0.851 0.491-1.598 1.035-2.183l-0.002 0.002zM44.856 27.356h0.046v-7.291l-0.007-0.012-2.225-3.405c-0.772-1.182-2.087-1.887-3.515-1.887h-6.11v12.594h2.13l0.006-0.040c0.268-1.958 1.947-3.474 3.977-3.474s3.71 1.516 3.978 3.474l0.005 0.040h1.716zM10.798 1.558c-3.189 0-5.783 2.595-5.783 5.783s2.594 5.784 5.783 5.784c3.189 0 5.784-2.595 5.784-5.784s-2.594-5.784-5.783-5.784zM14.456 27.861c0.002 1.458 1.183 2.639 2.641 2.641h0c1.458-0.001 2.64-1.183 2.641-2.641v-0c-0.002-1.458-1.183-2.639-2.641-2.641h-0c-1.458 0.002-2.639 1.183-2.641 2.64v0zM36.516 27.861c0.002 1.458 1.183 2.639 2.641 2.641h0c1.458-0.001 2.64-1.183 2.641-2.641v-0c-0.002-1.458-1.183-2.639-2.641-2.641h-0c-1.458 0.002-2.639 1.183-2.641 2.64v0z"></path>
            <path fill="#64d370" style="fill: var(--color1, #64d370)"
                d="M10.332 7.129l0.009-0.013v-2.992c0-0.38 0.308-0.689 0.689-0.689s0.689 0.308 0.689 0.689v0 3.217c0 0.146-0.046 0.288-0.132 0.406l-1.642 2.252c-0.126 0.173-0.328 0.284-0.556 0.284-0.153 0-0.294-0.050-0.408-0.134l0.002 0.001c-0.172-0.127-0.283-0.328-0.283-0.556 0-0.153 0.050-0.294 0.134-0.408l-0.001 0.002 1.501-2.059zM43.52 20.275h0c0.103 0.175 0.164 0.386 0.164 0.61 0 0.227-0.062 0.44-0.171 0.622l0.003-0.006c-0.214 0.369-0.608 0.614-1.059 0.614-0.002 0-0.005 0-0.007-0h-4.949c-0 0-0 0-0 0-0.38 0-0.689-0.308-0.689-0.689 0-0 0-0 0-0v0-5.147c0-0.381 0.308-0.689 0.689-0.689h1.407c1.232 0.002 2.307 0.67 2.885 1.663l0.009 0.016 1.717 3.006zM38.191 20.692v0.046h4.007l-0.040-0.070-1.551-2.715c-0.344-0.592-0.975-0.984-1.697-0.985h-0.718v3.723z"></path>
        </symbol>
        <symbol id="icon-clock" viewBox="0 0 32 32">
            <path fill="#64d370" style="fill: var(--color1, #64d370)"
                d="M15.807 31.498c-8.652 0-15.691-7.039-15.691-15.691s7.039-15.691 15.691-15.691c8.653 0 15.691 7.039 15.691 15.691s-7.039 15.691-15.691 15.691zM15.807 1.86c-7.691 0-13.947 6.256-13.947 13.947s6.256 13.947 13.947 13.947c7.691 0 13.947-6.256 13.947-13.947s-6.256-13.947-13.947-13.947z"></path>
            <path fill="#64d370" style="fill: var(--color1, #64d370)"
                d="M22.106 23.998v-0l-6.916-6.916c-0.158-0.158-0.255-0.375-0.256-0.616v-9.221c0.016-0.469 0.4-0.844 0.872-0.844s0.856 0.375 0.872 0.842l0 0.001v8.859l6.66 6.66c0.158 0.158 0.256 0.376 0.256 0.617s-0.098 0.459-0.256 0.617v0c-0.157 0.158-0.374 0.256-0.614 0.256-0.001 0-0.001 0-0.002 0h0c-0.224 0-0.447-0.085-0.616-0.256z"></path>
        </symbol>

        <symbol id="icon-telegram" viewBox="0 0 31 32">
            <path
                d="M15.5 0.5c-8.563 0-15.5 6.938-15.5 15.5s6.938 15.5 15.5 15.5 15.5-6.938 15.5-15.5-6.938-15.5-15.5-15.5zM22.688 11.044c-0.231 2.45-1.244 8.4-1.756 11.144-0.219 1.163-0.644 1.55-1.056 1.587-0.9 0.081-1.581-0.594-2.456-1.169-1.363-0.894-2.137-1.45-3.456-2.325-1.531-1.006-0.537-1.563 0.331-2.469 0.231-0.238 4.194-3.844 4.269-4.169 0.012-0.044 0.019-0.194-0.075-0.275s-0.225-0.050-0.319-0.031q-0.206 0.044-6.537 4.319-0.925 0.637-1.681 0.619c-0.556-0.012-1.619-0.313-2.412-0.569-0.969-0.313-1.744-0.481-1.675-1.019q0.050-0.419 1.156-0.856 6.775-2.95 9.037-3.894c4.306-1.787 5.2-2.1 5.781-2.113 0.131 0 0.413 0.031 0.6 0.181 0.119 0.105 0.199 0.251 0.218 0.416l0 0.003c0.023 0.134 0.037 0.289 0.037 0.447 0 0.061-0.002 0.121-0.006 0.18l0-0.008z"></path>
        </symbol>
        <symbol id="icon-viber" viewBox="0 0 32 32">
            <path
                d="M27.75 3.119c-0.794-0.731-4.006-3.063-11.169-3.094 0 0-8.444-0.506-12.556 3.269-2.288 2.288-3.094 5.644-3.181 9.8s-0.194 11.944 7.313 14.056h0.006l-0.006 3.225s-0.050 1.306 0.813 1.569c1.037 0.325 1.65-0.669 2.644-1.738 0.544-0.587 1.294-1.45 1.863-2.106 5.137 0.431 9.081-0.556 9.531-0.7 1.038-0.337 6.906-1.087 7.856-8.875 0.988-8.037-0.475-13.113-3.113-15.406zM28.619 17.938c-0.806 6.5-5.563 6.913-6.438 7.194-0.375 0.119-3.844 0.981-8.2 0.7 0 0-3.25 3.919-4.262 4.938-0.331 0.331-0.694 0.3-0.688-0.356 0-0.431 0.025-5.356 0.025-5.356-0.006 0-0.006 0 0 0-6.362-1.762-5.987-8.394-5.919-11.863s0.725-6.313 2.663-8.225c3.481-3.156 10.65-2.688 10.65-2.688 6.056 0.025 8.956 1.85 9.631 2.463 2.231 1.912 3.369 6.488 2.538 13.194zM19.931 12.887c0.025 0.537-0.781 0.575-0.806 0.037-0.069-1.375-0.712-2.044-2.038-2.119-0.538-0.031-0.488-0.838 0.044-0.806 1.744 0.094 2.712 1.094 2.8 2.888zM21.2 13.594c0.063-2.65-1.594-4.725-4.738-4.956-0.531-0.037-0.475-0.844 0.056-0.806 3.625 0.262 5.556 2.756 5.488 5.781-0.006 0.537-0.819 0.512-0.806-0.019zM24.137 14.431c0.006 0.537-0.806 0.544-0.806 0.006-0.038-5.094-3.431-7.869-7.55-7.9-0.531-0.006-0.531-0.806 0-0.806 4.606 0.031 8.313 3.213 8.356 8.7zM23.431 20.563v0.012c-0.675 1.188-1.938 2.5-3.238 2.081l-0.012-0.019c-1.319-0.369-4.425-1.969-6.387-3.531-1.012-0.8-1.938-1.744-2.65-2.65-0.644-0.806-1.294-1.762-1.925-2.912-1.331-2.406-1.625-3.481-1.625-3.481-0.419-1.3 0.887-2.563 2.081-3.237h0.012c0.575-0.3 1.125-0.2 1.494 0.244 0 0 0.775 0.925 1.106 1.381 0.313 0.425 0.731 1.106 0.95 1.488 0.381 0.681 0.144 1.375-0.231 1.662l-0.75 0.6c-0.381 0.306-0.331 0.875-0.331 0.875s1.113 4.206 5.269 5.269c0 0 0.569 0.050 0.875-0.331l0.6-0.75c0.288-0.375 0.981-0.613 1.663-0.231 0.919 0.519 2.087 1.325 2.863 2.056 0.438 0.356 0.538 0.9 0.238 1.475z"></path>
        </symbol>
        <symbol id="icon-instagram" viewBox="0 0 28 32">
            <path
                d="M14.006 8.813c-3.975 0-7.181 3.206-7.181 7.181s3.206 7.181 7.181 7.181 7.181-3.206 7.181-7.181-3.206-7.181-7.181-7.181zM14.006 20.663c-2.569 0-4.669-2.094-4.669-4.669s2.094-4.669 4.669-4.669 4.669 2.094 4.669 4.669-2.1 4.669-4.669 4.669zM23.156 8.519c0 0.931-0.75 1.675-1.675 1.675-0.931 0-1.675-0.75-1.675-1.675s0.75-1.675 1.675-1.675 1.675 0.75 1.675 1.675zM27.913 10.219c-0.106-2.244-0.619-4.231-2.262-5.869-1.637-1.638-3.625-2.15-5.869-2.263-2.313-0.131-9.244-0.131-11.556 0-2.237 0.106-4.225 0.619-5.869 2.256s-2.15 3.625-2.263 5.869c-0.131 2.313-0.131 9.244 0 11.556 0.106 2.244 0.619 4.231 2.263 5.869s3.625 2.15 5.869 2.262c2.313 0.131 9.244 0.131 11.556 0 2.244-0.106 4.231-0.619 5.869-2.262 1.637-1.637 2.15-3.625 2.262-5.869 0.131-2.313 0.131-9.238 0-11.55zM24.925 24.25c-0.488 1.225-1.431 2.169-2.663 2.663-1.844 0.731-6.219 0.563-8.256 0.563s-6.419 0.163-8.256-0.563c-1.225-0.488-2.169-1.431-2.663-2.663-0.731-1.844-0.563-6.219-0.563-8.256s-0.163-6.419 0.563-8.256c0.487-1.225 1.431-2.169 2.663-2.662 1.844-0.731 6.219-0.563 8.256-0.563s6.419-0.162 8.256 0.563c1.225 0.487 2.169 1.431 2.663 2.662 0.731 1.844 0.563 6.219 0.563 8.256s0.169 6.419-0.563 8.256z"></path>
        </symbol>
        <symbol id="icon-facebook" viewBox="0 0 32 32">
            <path
                d="M32 16c0-8.838-7.163-16-16-16s-16 7.162-16 16c0 7.5 5.169 13.8 12.137 15.531v-10.644h-3.3v-4.887h3.3v-2.106c0-5.444 2.463-7.969 7.813-7.969 1.012 0 2.762 0.2 3.481 0.4v4.425c-0.375-0.037-1.031-0.063-1.85-0.063-2.625 0-3.637 0.994-3.637 3.575v1.738h5.225l-0.9 4.887h-4.331v10.994c7.925-0.956 14.063-7.7 14.063-15.881z"></path>
        </symbol>

        <symbol id="icon-burger-menu" viewBox="0 0 40 32">
            <path
                d="M3.158 0h33.683c1.744 0 3.158 1.414 3.158 3.158v-0.002c0 1.744-1.414 3.158-3.158 3.158h-33.683c-1.744 0-3.158-1.414-3.158-3.158v0.002c0-1.744 1.414-3.158 3.158-3.158z"></path>
            <path
                d="M11.2 12.8h25.6c1.767 0 3.2 1.433 3.2 3.2s-1.433 3.2-3.2 3.2h-25.6c-1.767 0-3.2-1.433-3.2-3.2s1.433-3.2 3.2-3.2z"></path>
            <path
                d="M3.158 25.264h33.683c1.744 0 3.158 1.414 3.158 3.158v-0.002c0 1.744-1.414 3.158-3.158 3.158h-33.683c-1.744 0-3.158-1.414-3.158-3.158v0.002c0-1.744 1.414-3.158 3.158-3.158z"></path>
        </symbol>
        <symbol id="icon-phone" viewBox="0 0 29 32">
            <path fill="#65cf71" style="fill: var(--color1, #65cf71)"
                d="M21.89 13.024c-1.995 5.96-7.494 10.095-9.995 11.417l-2.555-4.17-8.832 3.783 1.686 7.783c21.654-1.991 26.281-21.209 25.889-30.569l-7.040-1.115-2.823 9.782 3.671 3.090z"></path>
        </symbol>
    </defs>
</svg>