<svg xmlns="http://www.w3.org/2000/svg" width="67" height="67" fill="none"><g fill="#64D370"><path d="m60.014 45.423-15.01 8.893-5.719-3.613h7.189a4.15 4.15 0 1 0 0-8.298H34.126a11.46 11.46 0 0 0-4.157.755l-9.602 4.36v-.966a1.131 1.131 0 0 0-1.132-1.131h-8.298a1.131 1.131 0 0 0-1.131 1.131v18.858a1.132 1.132 0 0 0 1.131 1.132h8.298a1.131 1.131 0 0 0 1.132-1.132v-1.131h23.452a7.03 7.03 0 0 0 4.133-1.335L63.99 51.457a3.643 3.643 0 0 0-3.976-6.034ZM18.104 64.28h-6.035V47.686h6.035V64.28Zm44.573-14.627L46.632 61.113a4.79 4.79 0 0 1-2.813.905H20.367V50l10.47-4.73a9.15 9.15 0 0 1 3.289-.603h12.348a1.886 1.886 0 0 1 0 3.772H35.378a1.132 1.132 0 0 0-.604 2.09l9.603 6.034a1.131 1.131 0 0 0 1.184 0l15.615-9.27a1.38 1.38 0 0 1 1.509 2.308l-.008.052ZM65.25 36.37h-2.64A29.08 29.08 0 0 0 37.225 8.324a4.904 4.904 0 1 0-7.31 0A29.072 29.072 0 0 0 4.527 36.37H1.13a1.132 1.132 0 0 0 0 2.263H65.25a1.131 1.131 0 1 0 0-2.263ZM33.567 2.425a2.64 2.64 0 1 1 0 5.28 2.64 2.64 0 0 1 0-5.28Zm0 7.921A26.801 26.801 0 0 1 60.346 36.37H6.79a26.801 26.801 0 0 1 26.779-26.024Z"/><path d="M27.486 15.71a22.222 22.222 0 0 0-14.182 12.197 1.132 1.132 0 1 0 2.06.92 19.967 19.967 0 0 1 12.74-10.938 1.133 1.133 0 1 0-.618-2.18Z"/></g></svg>